<svg width="88" height="88" viewBox="0 0 88 88" fill="none" xmlns="http://www.w3.org/2000/svg">
<g filter="url(#filter0_d_0_2026)">
<circle cx="44" cy="38" r="32" fill="#336CFB"/>
</g>
<g clip-path="url(#clip0_0_2026)">
<path d="M54.447 50.1468C54.3404 49.1255 54.3137 48.0961 54.2124 47.0721C54.0604 45.5388 53.8417 44.0135 53.3884 42.5335C53.143 41.7415 52.7697 41.0535 52.0257 40.6161C51.3137 40.1975 50.5377 39.9495 49.759 39.7068C49.487 39.6215 49.535 39.8135 49.551 39.9521C49.623 40.6215 49.5617 41.2828 49.423 41.9361C49.3777 42.1468 49.4497 42.2428 49.631 42.3468C50.399 42.7761 50.8364 43.4321 50.8844 44.3201C50.9324 45.2348 50.7457 46.1335 50.6897 47.0401C50.6524 47.6561 50.5857 48.2748 50.327 48.8481C50.015 49.5415 49.4764 49.8161 48.7404 49.6748C48.4604 49.6215 48.2764 49.4935 48.3217 49.1841C48.367 48.8801 48.5777 48.7735 48.8577 48.8295C49.2097 48.8988 49.415 48.7335 49.559 48.4455C49.6577 48.2455 49.711 48.0268 49.7324 47.8055C49.8364 46.7841 49.9484 45.7628 50.031 44.7388C50.1057 43.8135 49.6097 43.1121 48.7884 42.9255C47.9404 42.7335 47.2097 43.1175 46.8604 43.9815C46.5804 44.6721 46.351 45.3841 46.0844 46.0828C45.9324 46.4775 45.8017 46.8748 45.7217 47.2881C45.6177 47.8241 45.7244 48.0215 46.2204 48.2455C46.4577 48.3521 46.5724 48.5201 46.4897 48.7735C46.407 49.0295 46.2204 49.1015 45.9644 49.0535C45.2337 48.9148 44.8097 48.3948 44.823 47.6455C44.8284 47.3388 44.8737 47.0428 44.959 46.7495C45.2737 45.6615 45.687 44.6081 46.1084 43.5575C46.487 42.6135 47.2417 42.0935 48.2684 42.0215C48.4684 42.0055 48.5537 41.9495 48.591 41.7548C48.7164 41.1068 48.735 40.4588 48.6764 39.8028C48.6497 39.4935 48.5297 39.3255 48.207 39.2748C47.9457 39.2348 47.6844 39.1468 47.439 39.0455C47.1937 38.9468 47.087 38.9761 47.0017 39.2535C46.7004 40.2615 46.279 41.2241 45.791 42.1575C45.5564 42.6081 45.2844 43.0401 44.983 43.5628C44.863 42.9015 44.7724 42.3388 44.655 41.7788C44.6017 41.5281 44.607 41.3015 44.7164 41.0641C44.7777 40.9281 44.9404 40.7681 44.7777 40.6215C44.519 40.3868 44.2364 40.1815 43.9617 39.9655C43.9537 39.9575 43.9164 39.9761 43.9004 39.9895C43.6337 40.2188 43.3297 40.4161 43.1217 40.6881C42.9964 40.8508 43.239 41.0641 43.2924 41.2615C43.303 41.3068 43.327 41.3548 43.3217 41.3975C43.2097 42.0855 43.0924 42.7708 42.967 43.5228C42.879 43.4188 42.839 43.3788 42.8124 43.3335C42.1084 42.1975 41.535 41.0028 41.1004 39.7388C41.0124 39.4801 41.0204 39.0801 40.799 38.9975C40.591 38.9201 40.279 39.1255 40.0124 39.2001C39.8737 39.2401 39.751 39.2775 39.6977 39.4401C39.5964 39.7548 39.4524 40.0535 39.3777 40.3681C38.887 42.4161 39.0097 44.4428 39.6417 46.4455C39.7377 46.7495 39.8524 46.9148 40.199 46.9815C40.8684 47.1148 41.2284 47.8481 40.999 48.4828C40.759 49.1521 40.0364 49.4668 39.407 49.1788C38.7724 48.8908 38.5004 48.1095 38.8684 47.5281C39.0017 47.3175 38.9857 47.1548 38.9137 46.9468C38.2364 45.0028 38.055 43.0135 38.367 40.9761C38.439 40.5068 38.5964 40.0588 38.703 39.5628C37.7724 39.8348 36.879 40.0615 36.0737 40.5308C35.4817 40.8748 35.023 41.3255 34.7644 41.9815C34.455 42.7681 34.2684 43.5841 34.111 44.4108C33.7484 46.3308 33.6364 48.2801 33.4897 50.2241C33.4497 50.7548 33.687 51.0828 34.1084 51.3308H53.8124C54.3137 51.0935 54.5057 50.7148 54.447 50.1468ZM39.5457 33.7468C39.727 33.7948 39.8124 33.8828 39.8817 34.0481C40.2897 35.0241 40.7937 35.9415 41.543 36.7041C42.135 37.3095 42.8204 37.7628 43.6897 37.8508C44.783 37.9628 45.6364 37.4748 46.375 36.7361C47.127 35.9815 47.6497 35.0748 48.0577 34.0935C48.1137 33.9601 48.1324 33.7921 48.335 33.7735C49.063 33.7041 49.631 32.5521 49.511 31.8508C49.4764 31.6508 49.4017 31.4668 49.183 31.4535C48.911 31.4348 48.9617 31.2908 49.0017 31.1228C49.1457 30.5201 49.207 29.9041 49.2364 29.3761C49.255 28.8401 49.2044 28.3948 49.0977 27.9681C48.935 27.3228 48.6017 26.7681 47.9964 26.4588C47.639 26.2748 47.3644 26.0721 47.2444 25.6748C47.199 25.5201 47.047 25.4188 46.9217 25.3148C46.4577 24.9308 45.9084 24.7628 45.3377 24.7068C43.6284 24.5388 42.0337 24.9041 40.623 25.8988C39.6497 26.5815 38.9804 27.4828 38.8444 28.7095C38.7537 29.5175 38.799 30.3175 38.951 31.1148C38.983 31.2855 39.0524 31.4641 38.751 31.4588C38.615 31.4561 38.527 31.5708 38.4817 31.7041C38.231 32.4188 38.8097 33.5521 39.5457 33.7468Z" fill="white"/>
</g>
<defs>
<filter id="filter0_d_0_2026" x="0" y="0" width="88" height="88" filterUnits="userSpaceOnUse" color-interpolation-filters="sRGB">
<feFlood flood-opacity="0" result="BackgroundImageFix"/>
<feColorMatrix in="SourceAlpha" type="matrix" values="0 0 0 0 0 0 0 0 0 0 0 0 0 0 0 0 0 0 127 0" result="hardAlpha"/>
<feOffset dy="6"/>
<feGaussianBlur stdDeviation="6"/>
<feColorMatrix type="matrix" values="0 0 0 0 0.2 0 0 0 0 0.423529 0 0 0 0 0.984314 0 0 0 0.16 0"/>
<feBlend mode="normal" in2="BackgroundImageFix" result="effect1_dropShadow_0_2026"/>
<feBlend mode="normal" in="SourceGraphic" in2="effect1_dropShadow_0_2026" result="shape"/>
</filter>
<clipPath id="clip0_0_2026">
<rect width="26.6667" height="26.6667" fill="white" transform="translate(30.6666 24.6667)"/>
</clipPath>
</defs>
</svg>
